Coordinates
version=1
nRows=17
nColumns=24
inDegrees=yes

Units are S.I. units (second, meters, Newtons, ...)
If the header above contains a line with 'inDegrees', this indicates whether rotational values are in degrees (yes) or radians (no).

endheader
time	pelvis_tilt	pelvis_list	pelvis_rotation	pelvis_tx	pelvis_ty	pelvis_tz	hip_flexion_r	hip_adduction_r	hip_rotation_r	knee_angle_r	ankle_angle_r	subtalar_angle_r	mtp_angle_r	hip_flexion_l	hip_adduction_l	hip_rotation_l	knee_angle_l	ankle_angle_l	subtalar_angle_l	mtp_angle_l	lumbar_extension	lumbar_bending	lumbar_rotation
     27.25000000	    -13.19426782	      4.80325722	     -1.38153720	      0.91692151	      0.95816358	     -0.57139869	    -16.03114276	     -2.63025644	     12.00197960	      0.44015136	     20.96397745	    -17.62543868	      0.00000000	     51.95794512	      2.38301740	     -2.39608612	    -57.28343693	     21.99880235	      2.76576819	      0.00000000	    -38.78467781	     -9.12337356	      4.53713877
     27.26000000	    -13.03901147	      4.97032338	     -1.67107982	      0.91745592	      0.95530560	     -0.57166202	    -16.62696627	     -2.86481047	     11.97893959	      0.06416885	     20.96174469	    -17.44414459	      0.00000000	     51.50288959	      2.38917906	     -2.54583761	    -57.23609979	     22.49243974	      3.23192901	      0.00000000	    -38.74160543	     -9.43355887	      4.85476406
     27.27000000	    -12.90823772	      5.18901277	     -2.06678136	      0.91845253	      0.95266787	     -0.57183482	    -17.15931312	     -3.18768172	     11.94395291	     -0.37678639	     20.97949915	    -17.09606913	      0.00000000	     50.90540145	      2.40052888	     -2.76369452	    -57.32553830	     22.94399736	      3.47633549	      0.00000000	    -38.63016760	     -9.88793872	      5.24835724
     27.28000000	    -12.89469211	      5.30950869	     -2.46322300	      0.91964092	      0.95011863	     -0.57214487	    -17.47934278	     -3.41172579	     11.97314614	     -0.98689440	     20.81167318	    -16.82697967	      0.00000000	     50.29023490	      2.37487067	     -2.90165910	    -57.52147136	     23.14493341	      3.49116577	      0.00000000	    -38.37081464	    -10.23801271	      5.66123286
     27.29000000	    -12.90727550	      5.44756194	     -2.83110720	      0.92117991	      0.94779108	     -0.57260082	    -17.72034627	     -3.65917502	     11.55753905	     -1.69015535	     20.83968433	    -15.85158482	      0.00000000	     49.49241039	      2.43918045	     -3.01636172	    -57.71746329	     23.45708806	      3.62778663	      0.00000000	    -38.07640315	    -10.58051088	      6.03189975
     27.30000000	    -12.89359444	      5.58194128	     -3.18399107	      0.92306598	      0.94579961	     -0.57317973	    -17.97116300	     -3.89948604	     11.45145540	     -2.44436233	     20.41641129	    -15.61507929	      0.00000000	     48.45204901	      2.56453700	     -3.10639424	    -57.80882685	     23.62714703	      3.74956865	      0.00000000	    -37.80981449	    -10.89263875	      6.37490014
     27.31000000	    -12.93530582	      5.67226751	     -3.49635368	      0.92534135	      0.94392359	     -0.57393996	    -18.11373701	     -4.10450556	     10.94751582	     -3.30892648	     19.99194479	    -14.92767068	      0.00000000	     47.16653326	      2.72308447	     -3.15822691	    -57.55905218	     25.12737170	      4.05347501	      0.00000000	    -37.46529837	    -11.13363047	      6.78508128
     27.32000000	    -13.00569329	      5.80966140	     -3.73561711	      0.92785170	      0.94242131	     -0.57491708	    -18.17383557	     -4.36048853	     10.31749196	     -4.23996198	     19.60626136	    -13.93885544	      0.00000000	     45.90172239	      3.06073806	     -3.07478339	    -57.27911111	     28.58892712	      4.47257873	      0.00000000	    -37.11113520	    -11.39193490	      6.90786095
     27.33000000	    -13.09249465	      5.93334460	     -3.88375024	      0.93055392	      0.94126410	     -0.57603124	    -18.12931372	     -4.57812232	      9.51611531	     -5.33605614	     18.92774551	    -13.00137795	      0.00000000	     44.88808442	      3.45615681	     -2.94269553	    -57.04704917	     29.62143291	      3.48102594	      0.00000000	    -36.78900505	    -11.55914241	      7.08315828
     27.34000000	    -13.21429204	      6.07022655	     -3.91915524	      0.93316725	      0.94066750	     -0.57735847	    -17.87676991	     -4.78173759	      8.63741954	     -6.69961096	     18.17380026	    -11.94010548	      0.00000000	     44.16013650	      3.89435361	     -2.85184170	    -57.01153021	     29.84068153	      2.76910684	      0.00000000	    -36.48585142	    -11.68133260	      7.00674337
     27.35000000	    -13.37204755	      6.13309839	     -3.81805772	      0.93576525	      0.94051928	     -0.57876772	    -17.46627234	     -4.86608290	      7.83862154	     -8.23910708	     17.03323077	    -11.23523428	      0.00000000	     43.55158821	      4.33515514	     -2.68199500	    -57.04180655	     30.01797201	      2.28326822	      0.00000000	    -36.19150225	    -11.66163119	      6.89681632
     27.36000000	    -13.44642533	      6.25430369	     -3.48128079	      0.93814897	      0.94112634	     -0.58057860	    -16.94206625	     -4.96504345	      6.75980492	    -10.10215924	     15.74321019	    -10.40222263	      0.00000000	     42.82492234	      4.93353019	     -2.44906042	    -56.87578320	     30.15977476	      1.80404557	      0.00000000	    -36.12159464	    -11.57632100	      6.47728725
     27.37000000	    -13.49771336	      6.36916857	     -3.16452144	      0.94092651	      0.94200049	     -0.58241264	    -16.25619459	     -5.08987917	      5.72436425	    -12.23727849	     14.16161778	     -9.55126348	      0.00000000	     41.97941336	      5.46007355	     -2.22300049	    -56.52655856	     30.30069699	      1.54059401	      0.00000000	    -36.04906162	    -11.48655819	      6.17536145
     27.38000000	    -13.45114176	      6.38473546	     -2.62225969	      0.94322388	      0.94349644	     -0.58463301	    -15.45508767	     -5.06967525	      4.62530516	    -14.68837064	     12.19325950	     -9.01721895	      0.00000000	     40.94244607	      6.01629133	     -1.75914055	    -55.98849925	     30.50831798	      1.45549948	      0.00000000	    -36.18862544	    -11.16402545	      5.76511656
     27.39000000	    -13.40326129	      6.47193373	     -2.40972258	      0.94605666	      0.94512178	     -0.58633597	    -14.35040058	     -5.23448657	      3.86109326	    -17.56157844	     10.00420150	     -8.40889377	      0.00000000	     39.80673585	      6.40491238	     -1.54158303	    -55.38698397	     30.68144486	      1.35471885	      0.00000000	    -36.21500179	    -11.08564380	      5.63551004
     27.40000000	    -13.26287496	      6.52420539	     -2.17618815	      0.94842102	      0.94716064	     -0.58819866	    -12.93102652	     -5.38019594	      3.17587862	    -21.05738049	      7.52937999	     -7.95675566	      0.00000000	     38.47097069	      6.80976446	     -1.28153894	    -54.61536159	     30.98400232	      1.29643548	      0.00000000	    -36.37331356	    -10.95124137	      5.41153561
     27.41000000	    -13.11079450	      6.55838033	     -2.19432025	      0.95078301	      0.94942299	     -0.58966289	    -11.25160727	     -5.56715154	      2.86645777	    -24.86166375	      4.58529220	     -7.72901519	      0.00000000	     36.97747508	      7.01450415	     -1.24938499	    -53.66599596	     31.33285960	      1.27775856	      0.00000000	    -36.47735387	    -10.91914463	      5.32913218
